<svg xmlns="http://www.w3.org/2000/svg" width="172" height="36" fill="none"><g clip-path="url(#a)"><path fill="#fff" d="M132.62 9.78V7.1h4.99V27c-.21 4.51-2.84 7.97-7.29 8.8-5.22.96-11.26-1.43-11.98-7.32h5.16c.23.96.8 1.82 1.65 2.32 1.48.89 4.03.9 5.52.05 2.4-1.4 1.9-4.7 1.95-7.08a7.51 7.51 0 0 1-5.54 3.03c-8.08.5-11.48-9.28-7.95-15.65 2.39-4.31 8.11-6.02 12.09-2.82.54.44.93.94 1.4 1.45Zm-5.46 1.76c-6.2.6-5.63 10.89.9 10.41 6.47-.46 5.85-11.05-.9-10.41ZM68.98 9.83V7.09h5l-.07 19.57h-5l.06-2.62a7.49 7.49 0 0 1-5.59 3.03c-11.24.64-12.5-17.94-2.43-20.19 3.14-.7 6.1.3 8.01 2.93l.02.02Zm-5.46 1.71c-6.2.6-5.68 11.18.9 10.7 6.48-.46 5.85-11.36-.9-10.7ZM114.85 18.22h-14.8c.21 2.26 1.5 4.03 3.73 4.52 2.15.48 4.56-.22 5.59-2.3h5.13c-1.08 3.8-4.3 6.18-8.1 6.58-7.7.82-13.22-5.72-11-13.33 2.5-8.6 14.83-9.57 18.47-1.43a13 13 0 0 1 .98 5.96Zm-5.34-3.73a4.63 4.63 0 0 0-5.93-3.43c-1.68.44-2.79 1.79-3.3 3.43h9.23ZM17.94 12.92h-5.1c-.31-1.07-1.2-1.63-2.24-1.84-1.25-.24-5.03-.34-4.7 1.75.07.48.66.7 1.06.85 3.39 1.23 10.76 1.35 11.15 6.21.34 4.12-2.47 6.38-6.18 7C6.96 27.74.85 25.97 0 20.22h5.05c.38 1.8 2.04 2.51 3.7 2.63 1.09.08 3.89.14 4.19-1.28.27-1.35-1.2-1.66-2.14-1.91-4.34-1.17-11.6-1.76-9.68-8.35C2.4 6.85 8.58 6.1 12.35 7.03a7.2 7.2 0 0 1 5.59 5.9v-.01ZM28.6.03v7.06h7.11v4.77h-7.1v7.78c0 .85.73 1.96 1.47 2.35 1.74.9 3.92-.14 5.63-.58l.8 4.13c-.58.3-1.15.6-1.76.81-5.33 1.86-10.54.15-11.14-6.07l-.06-8.43H20.1V7.08h3.45V4.64L28.6.03ZM85.2.03v7.06h7.1v4.77h-7.1v7.78c0 .85.73 1.96 1.47 2.35 1.74.9 3.92-.14 5.63-.58l.8 4.13c-.58.3-1.15.6-1.76.81-5.33 1.86-10.54.15-11.14-6.07l-.06-8.43h-3.45V7.08h3.45V4.64L85.2.03ZM51.95 6.74v5.24c-2.17-.24-4.73.06-6.1 1.99a6.81 6.81 0 0 0-1.07 3.46v9.23H39.8V7.1h5v3.37l1.05-1.63c1.53-1.8 3.83-2.37 6.1-2.1Z"/><path fill="#CFD1D3" d="M165.4 15.74 172 7.1h-6.17l-3.57 4.32 3.15 4.33ZM162.03 22.08l3.03 4.1h6.46l-6.1-8.43-3.39 4.33Z"/><path fill="#2AB464" d="m157.11 26.19 7.39-9.47-6.98-9.63h-5.77l6.49 9.92-6.77 9.18h5.64Z"/><path fill="#fff" d="M142.3 11.85v14.72h5.23V7.09l-5.23 4.76ZM147.52 0h-5.23v4.62h5.23V0Z"/></g><defs><clipPath id="a"><path fill="#fff" d="M0 0h172v36H0z"/></clipPath></defs></svg>