<svg xmlns="http://www.w3.org/2000/svg" width="119" height="25" fill="none"><path fill="#1B202E" d="M91.75 6.79V4.92h3.45v13.83c-.15 3.13-1.97 5.54-5.04 6.1-3.62.68-7.79-.98-8.29-5.07h3.57c.16.67.56 1.26 1.14 1.6 1.02.62 2.79.64 3.82.04 1.66-.98 1.3-3.27 1.34-4.92a5.2 5.2 0 0 1-3.82 2.1c-5.6.36-7.95-6.44-5.5-10.87 1.65-2.98 5.6-4.17 8.35-1.95.38.3.65.66.97 1.01ZM87.97 8c-4.3.41-3.9 7.56.62 7.23 4.48-.32 4.05-7.68-.62-7.23ZM47.72 6.83v-1.9h3.45l-.04 13.59h-3.45l.04-1.82a5.18 5.18 0 0 1-3.87 2.1c-7.77.45-8.64-12.45-1.67-14.01a5.2 5.2 0 0 1 5.54 2.04ZM43.94 8c-4.29.43-3.93 7.76.62 7.43 4.49-.32 4.06-7.9-.62-7.43ZM79.45 12.65H69.22c.15 1.57 1.04 2.8 2.58 3.14 1.54.35 3.15-.15 3.86-1.6h3.55a6.35 6.35 0 0 1-5.61 4.57c-5.32.57-9.14-3.98-7.6-9.25 1.73-5.97 10.26-6.65 12.77-1 .58 1.31.75 2.72.68 4.14Zm-3.69-2.59c-.49-1.93-2.21-2.88-4.1-2.38-1.16.3-1.93 1.25-2.28 2.38h6.38ZM12.41 8.97H8.88c-.2-.74-.82-1.14-1.54-1.28-.86-.17-3.48-.23-3.25 1.22.05.33.45.49.73.59 2.34.85 7.44.94 7.71 4.3.24 2.87-1.7 4.44-4.27 4.87-3.44.58-7.67-.65-8.26-4.64h3.49c.27 1.24 1.41 1.74 2.56 1.82.75.05 2.7.1 2.9-.89.19-.93-.83-1.15-1.48-1.33-3-.8-8.02-1.22-6.7-5.8.9-3.1 5.17-3.6 7.78-2.96a5 5 0 0 1 3.87 4.1ZM19.8.02v4.9h4.9v3.32h-4.9v5.4c0 .6.5 1.37 1 1.64 1.21.63 2.72-.1 3.9-.4l.56 2.87c-.4.2-.8.4-1.22.56-3.68 1.3-7.3.1-7.7-4.22l-.04-5.85h-2.38V4.92h2.38V3.23L19.8.02ZM58.94.02v4.9h4.92v3.32h-4.92v5.4c0 .6.51 1.37 1.02 1.64 1.2.63 2.7-.1 3.9-.4l.55 2.87c-.4.2-.8.4-1.22.56-3.68 1.3-7.29.1-7.7-4.22l-.04-5.85h-2.38V4.92h2.38V3.23l3.5-3.21ZM35.93 4.68v3.64c-1.5-.17-3.27.05-4.22 1.38a4.7 4.7 0 0 0-.74 2.4v6.42h-3.45V4.92h3.45v2.35l.74-1.13a4.63 4.63 0 0 1 4.22-1.46Z"/><path fill="#CFD1D3" d="m114.43 10.93 4.57-6h-4.28l-2.46 2.99 2.17 3.01ZM112.1 15.33l2.1 2.86h4.47l-4.23-5.87-2.34 3.01Z"/><path fill="#2AB464" d="m108.7 18.19 5.1-6.58-4.82-6.69h-4l4.5 6.89-4.68 6.38h3.9Z"/><path fill="#1B202E" d="M98.44 8.24v10.2h3.62V4.93l-3.62 3.32ZM102.06 0h-3.62v3.21h3.62V0Z"/></svg>