<svg width="1200" height="350" viewBox="0 0 1200 350" fill="none" xmlns="http://www.w3.org/2000/svg">
<path d="M525 43.75C494.165 43.75 468.75 69.165 468.75 100V118.75H474.5V100C474.5 68.1992 500.199 49.5 525 49.5H543.75V43.75H525ZM562.5 43.75V49.5H637.5V43.75H562.5ZM656.25 43.75V49.5H675C701.801 49.5 725.5 72.1992 725.5 100V118.75H731.25V100C731.25 69.165 705.835 43.75 675 43.75H656.25ZM468.75 137.5V212.5H474.5V137.5H468.75ZM725.5 137.5V212.5H731.25V137.5H725.5ZM561.853 118.75C557.977 118.75 554.5 121.892 554.5 125.38C554.5 126.16 554.5 133.375 554.5 133.375V221.125V228.438C554.5 235.75 561.853 235.75 561.853 235.75C564.989 235.75 568.058 234.846 570.694 233.147L650.143 181.93C650.143 181.93 659.946 177.25 650.143 171.589L570.716 121.319C568.064 119.641 564.991 118.75 561.853 118.75ZM468.75 231.25V250C468.75 280.835 494.165 306.25 525 306.25H543.75V300.5H525C497.199 300.5 474.5 277.801 474.5 250V231.25H468.75ZM725.5 231.25V250C725.5 276.801 702.801 300.5 675 300.5H656.25V306.25H675C705.835 306.25 731.25 280.835 731.25 250V231.25H725.5ZM562.5 300.5V306.25H637.5V300.5H562.5Z" fill="#2E3434" fill-opacity="0.34902"/>
</svg>
