<svg width="1200" height="350" viewBox="0 0 1200 350" fill="none" xmlns="http://www.w3.org/2000/svg">
<path d="M525 43.75C494.165 43.75 468.75 69.165 468.75 100V118.75H474.5V100C474.5 68.1992 500.199 49.5 525 49.5H543.75V43.75H525ZM562.5 43.75V49.5H637.5V43.75H562.5ZM656.25 43.75V49.5H675C701.801 49.5 725.5 72.1992 725.5 100V118.75H731.25V100C731.25 69.165 705.835 43.75 675 43.75H656.25ZM562.5 118.75C552.173 118.75 543.75 127.173 543.75 137.5C543.75 147.827 552.173 156.25 562.5 156.25C572.827 156.25 581.25 147.827 581.25 137.5C581.25 127.173 572.827 118.75 562.5 118.75ZM468.75 137.5V212.5H474.5V137.5H468.75ZM725.5 137.5V212.5H731.25V137.5H725.5ZM628.125 175L590.625 212.5L562.5 193.75L525 231.25V240.625C525 250 534.375 250 534.375 250H665.625C665.625 250 674.487 249.341 675 240.625V221.875L628.125 175ZM468.75 231.25V250C468.75 280.835 494.165 306.25 525 306.25H543.75V300.5H525C497.199 300.5 474.5 277.801 474.5 250V231.25H468.75ZM725.5 231.25V250C725.5 276.801 702.801 300.5 675 300.5H656.25V306.25H675C705.835 306.25 731.25 280.835 731.25 250V231.25H725.5ZM562.5 300.5V306.25H637.5V300.5H562.5Z" fill="#2E3434" fill-opacity="0.34902"/>
</svg>
