<svg width="800" height="1200" viewBox="0 0 800 1200" fill="none" xmlns="http://www.w3.org/2000/svg">
<path d="M325 468.75C294.165 468.75 268.75 494.165 268.75 525V543.75H274.5V525C274.5 493.199 300.199 474.5 325 474.5H343.75V468.75H325ZM362.5 468.75V474.5H437.5V468.75H362.5ZM456.25 468.75V474.5H475C501.801 474.5 525.5 497.199 525.5 525V543.75H531.25V525C531.25 494.165 505.835 468.75 475 468.75H456.25ZM362.5 543.75C352.173 543.75 343.75 552.173 343.75 562.5C343.75 572.827 352.173 581.25 362.5 581.25C372.827 581.25 381.25 572.827 381.25 562.5C381.25 552.173 372.827 543.75 362.5 543.75ZM268.75 562.5V637.5H274.5V562.5H268.75ZM525.5 562.5V637.5H531.25V562.5H525.5ZM428.125 600L390.625 637.5L362.5 618.75L325 656.25V665.625C325 675 334.375 675 334.375 675H465.625C465.625 675 474.487 674.341 475 665.625V646.875L428.125 600ZM268.75 656.25V675C268.75 705.835 294.165 731.25 325 731.25H343.75V725.5H325C297.199 725.5 274.5 702.801 274.5 675V656.25H268.75ZM525.5 656.25V675C525.5 701.801 502.801 725.5 475 725.5H456.25V731.25H475C505.835 731.25 531.25 705.835 531.25 675V656.25H525.5ZM362.5 725.5V731.25H437.5V725.5H362.5Z" fill="#2E3434" fill-opacity="0.34902"/>
</svg>
