<svg xmlns="http://www.w3.org/2000/svg" width="13" height="13" fill="none"><path fill="#fff" d="M10.63 1.82A6.14 6.14 0 0 0 6.24 0 6.2 6.2 0 0 0 .87 9.29L0 12.5l3.28-.86a6.2 6.2 0 0 0 7.35-9.82Zm-4.39 9.52c-.92 0-1.83-.25-2.62-.71l-.19-.12-1.95.52.52-1.9-.13-.2a5.16 5.16 0 0 1 4.37-7.89 5.1 5.1 0 0 1 4.75 3.19 5.13 5.13 0 0 1-4.75 7.12ZM9.07 7.5C8.9 7.42 8.15 7.04 8 7c-.14-.05-.24-.08-.35.07-.1.16-.4.5-.49.6-.08.12-.18.13-.33.05-.16-.08-.66-.25-1.25-.77a4.73 4.73 0 0 1-.86-1.08c-.09-.15-.01-.23.07-.32.07-.06.16-.18.23-.26.08-.1.1-.16.16-.26.05-.1.02-.2-.02-.27L4.7 3.6c-.13-.3-.26-.26-.35-.27h-.3c-.1 0-.27.04-.41.2-.14.15-.54.53-.54 1.29s.56 1.5.63 1.6c.08.1 1.1 1.67 2.65 2.34.36.16.65.25.88.32.37.12.7.1.97.06.3-.04.92-.37 1.04-.73.14-.37.14-.67.1-.74-.05-.07-.14-.1-.3-.18Z"/></svg>